<!DOCTYPE svg PUBLIC "-//W3C//DTD SVG 20010904//EN" "http://www.w3.org/TR/2001/REC-SVG-20010904/DTD/svg10.dtd">
<svg version="1.0" xmlns="http://www.w3.org/2000/svg" width="211px" height="200px" viewBox="0 0 2110 2000" preserveAspectRatio="xMidYMid meet">
<g id="layer101" fill="#7bb3d4" stroke="none">
 <path d="M0 1000 l0 -1000 1055 0 1055 0 0 1000 0 1000 -1055 0 -1055 0 0 -1000z"/>
 </g>
<g id="layer102" fill="#ffffff" stroke="none">
 <path d="M0 1000 l0 -1000 1055 0 1055 0 0 1000 0 1000 -1055 0 -1055 0 0 -1000z m1215 946 c379 -76 682 -384 755 -766 16 -82 13 -293 -4 -375 -64 -301 -260 -548 -539 -681 -186 -88 -432 -111 -637 -60 -371 93 -639 374 -719 756 -17 78 -15 291 3 375 80 376 373 672 741 750 83 18 314 18 400 1z"/>
 <path d="M503 1552 c-32 -5 -72 -49 -79 -88 -10 -53 12 -90 89 -150 296 -231 738 -232 1002 -1 90 80 105 146 44 206 -53 53 -114 45 -179 -24 -38 -40 -114 -82 -200 -110 -74 -25 -242 -25 -325 -1 -79 24 -148 60 -216 113 -58 45 -98 61 -136 55z"/>
 <path d="M620 839 c-47 -10 -110 -78 -110 -118 0 -27 9 -34 111 -92 124 -69 128 -69 166 -3 28 49 29 86 2 133 -37 65 -99 95 -169 80z"/>
 <path d="M1347 835 c-97 -34 -138 -137 -84 -215 40 -60 44 -59 167 10 l112 64 -6 35 c-6 40 -59 99 -96 107 -14 3 -32 7 -40 9 -8 2 -32 -2 -53 -10z"/>
 </g>

</svg>