<!DOCTYPE svg PUBLIC "-//W3C//DTD SVG 20010904//EN" "http://www.w3.org/TR/2001/REC-SVG-20010904/DTD/svg10.dtd">
<svg version="1.0" xmlns="http://www.w3.org/2000/svg" width="220px" height="206px" viewBox="0 0 2200 2060" preserveAspectRatio="xMidYMid meet">
<g id="layer101" fill="#dd5d85" stroke="none">
 <path d="M0 1030 l0 -1030 1100 0 1100 0 0 1030 0 1030 -1100 0 -1100 0 0 -1030z"/>
 </g>
<g id="layer102" fill="#ffffff" stroke="none">
 <path d="M0 1030 l0 -1030 1100 0 1100 0 0 1030 0 1030 -1100 0 -1100 0 0 -1030z m1315 926 c434 -87 763 -477 766 -909 1 -241 -119 -508 -316 -701 -184 -180 -454 -298 -678 -297 -383 2 -750 270 -879 641 -67 193 -67 447 0 640 109 312 385 557 707 625 83 18 314 18 400 1z"/>
 <path d="M964 1625 c-210 -46 -397 -222 -420 -397 l-7 -48 583 0 583 0 -7 48 c-23 177 -211 352 -425 398 -82 17 -226 17 -307 -1z"/>
 <path d="M697 886 c-20 -8 -44 -20 -53 -27 -48 -40 -59 -134 -21 -190 30 -46 106 -83 152 -75 46 9 101 58 116 103 38 116 -78 230 -194 189z"/>
 <path d="M1445 885 c-111 -39 -138 -177 -50 -254 61 -53 139 -53 200 0 125 110 7 310 -150 254z"/>
 </g>

</svg>