<!DOCTYPE svg PUBLIC "-//W3C//DTD SVG 20010904//EN" "http://www.w3.org/TR/2001/REC-SVG-20010904/DTD/svg10.dtd">
<svg version="1.0" xmlns="http://www.w3.org/2000/svg" width="226px" height="208px" viewBox="0 0 2260 2080" preserveAspectRatio="xMidYMid meet">
<g id="layer101" fill="#f0ac4d" stroke="none">
 <path d="M0 1040 l0 -1040 1130 0 1130 0 0 1040 0 1040 -1130 0 -1130 0 0 -1040z"/>
 </g>
<g id="layer102" fill="#ffffff" stroke="none">
 <path d="M0 1040 l0 -1040 1130 0 1130 0 0 1040 0 1040 -1130 0 -1130 0 0 -1040z m1340 915 c244 -47 467 -200 610 -417 108 -162 152 -317 152 -528 0 -152 -15 -237 -61 -353 -117 -295 -355 -503 -666 -583 -146 -37 -319 -37 -465 1 -182 48 -318 124 -445 250 -284 280 -366 717 -204 1078 128 283 383 491 679 552 89 18 307 18 400 0z"/>
 <path d="M703 1492 c-50 -39 -51 -115 -1 -157 l30 -25 404 0 c279 0 412 3 427 11 63 32 77 111 28 160 l-29 29 -419 0 c-381 0 -420 -2 -440 -18z"/>
 <path d="M726 890 c-94 -29 -136 -151 -80 -234 61 -89 182 -87 249 3 80 110 -37 270 -169 231z"/>
 <path d="M1467 885 c-69 -24 -97 -65 -97 -143 0 -159 211 -209 280 -67 26 53 25 80 -2 135 -37 71 -107 101 -181 75z"/>
 </g>

</svg>